<svg width="40" height="40" viewBox="0 0 447 447" fill="none" xmlns="http://www.w3.org/2000/svg">
    <g clip-path="url(#clip0_454_65)">
        <path d="M244.541 372.048H123.875C106.819 372.048 92.9424 358.172 92.9424 341.116V300.359C92.9424 293.005 98.9044 287.043 106.259 287.043C113.613 287.043 119.575 293.005 119.575 300.359V341.116C119.575 343.486 121.504 345.415 123.875 345.415H244.541C251.896 345.415 257.858 351.377 257.858 358.732C257.858 366.086 251.896 372.048 244.541 372.048Z"
              fill="#499C54"/>
        <path d="M357.461 308.707L303.878 360.845V418.574C303.878 425.589 312.347 429.115 317.326 424.174L433.682 308.708L317.326 193.243C312.347 188.302 303.878 191.829 303.878 198.844V256.572L357.461 308.707Z"
              fill="#C75450" fill-opacity="0.5"/>
        <path d="M443.062 299.255L326.705 183.79C322.696 179.81 317.412 177.62 311.824 177.62C300.1 177.62 290.562 187.14 290.562 198.843V245.366H204.939C197.584 245.366 191.622 251.328 191.622 258.683C191.622 266.037 197.584 271.999 204.939 271.999H300.642L338.368 308.707L294.594 351.3C292.018 353.806 290.564 357.249 290.564 360.844V418.572C290.564 430.273 300.103 439.793 311.826 439.795H311.828C317.415 439.795 322.699 437.603 326.709 433.625L443.065 318.159C445.584 315.659 447.001 312.255 447.001 308.706C447 305.158 445.582 301.754 443.062 299.255ZM317.195 405.544V366.468L366.747 318.251C369.323 315.745 370.777 312.303 370.777 308.707C370.777 305.112 369.324 301.671 366.747 299.163L317.195 250.947V211.871L414.776 308.707L317.195 405.544Z"
              fill="#C75450"/>
        <path d="M340.738 159.956C333.384 159.956 327.422 153.994 327.422 146.639V105.883C327.422 103.512 325.493 101.583 323.122 101.583H202.456C195.102 101.583 189.14 95.621 189.14 88.2665C189.14 80.912 195.102 74.95 202.456 74.95H323.122C340.178 74.95 354.055 88.8261 354.055 105.883V146.639C354.055 153.994 348.093 159.956 340.738 159.956Z"
              fill="#C75450"/>
        <path d="M89.5375 138.293L143.12 86.1546V28.4272C143.12 21.4123 134.651 17.8861 129.672 22.8267L13.3164 138.293L129.672 253.759C134.651 258.7 143.12 255.173 143.12 248.158V190.43L89.5375 138.293Z"
              fill="#499C54" fill-opacity="0.5"/>
        <path d="M242.06 175.002H146.357L108.631 138.294L152.405 95.7004C154.981 93.1939 156.435 89.7523 156.435 86.1563V28.4272C156.435 16.7249 146.896 7.20435 135.172 7.20435C129.585 7.20435 124.301 9.39656 120.291 13.3741L3.93655 128.84C1.41695 131.34 0 134.744 0 138.293C0 141.842 1.41695 145.246 3.93655 147.745L120.293 263.211C124.301 267.189 129.587 269.381 135.174 269.381C140.606 269.381 145.786 267.337 149.76 263.624C154.065 259.601 156.437 254.108 156.437 248.158V201.635H242.061C249.415 201.635 255.377 195.673 255.377 188.318C255.377 180.964 249.415 175.002 242.06 175.002ZM129.804 235.128L32.2223 138.293L129.804 41.4565V80.5321L80.2519 128.749C77.6755 131.255 76.2219 134.697 76.2219 138.293C76.2219 141.889 77.6747 145.329 80.2519 147.837L129.804 196.053V235.128Z"
              fill="#499C54"/>
    </g>
    <defs>
        <clipPath id="clip0_454_65">
            <rect width="447" height="447" fill="white"/>
        </clipPath>
    </defs>
</svg>
