<svg width="40" height="40" viewBox="0 0 447 447" fill="none" xmlns="http://www.w3.org/2000/svg">
   <g transform="translate(-15.755699,2.6378771)">
      <path
       d="m 357.461,308.707 -53.583,52.138 v 57.729 c 0,7.015 8.469,10.541 13.448,5.6 L 433.682,308.708 317.326,193.243 c -4.979,-4.941 -13.448,-1.414 -13.448,5.601 v 57.728 z"
       fill="#ffff80" transform="translate(-22.35)" />
      <path
       d="M 443.062,299.255 326.705,183.79 c -4.009,-3.98 -9.293,-6.17 -14.881,-6.17 -11.724,0 -21.262,9.52 -21.262,21.223 v 46.523 h -63.273 c -7.355,0 -13.317,5.962 -13.317,13.317 0,7.354 5.962,13.316 13.317,13.316 h 73.353 l 37.726,36.708 -43.774,42.593 c -2.576,2.506 -4.03,5.949 -4.03,9.544 v 57.728 c 0,11.701 9.539,21.221 21.262,21.223 h 0.002 c 5.587,0 10.871,-2.192 14.881,-6.17 L 443.065,318.159 c 2.519,-2.5 3.936,-5.904 3.936,-9.453 -10e-4,-3.548 -1.419,-6.952 -3.939,-9.451 z M 317.195,405.544 v -39.076 l 49.552,-48.217 c 2.576,-2.506 4.03,-5.948 4.03,-9.544 0,-3.595 -1.453,-7.036 -4.03,-9.544 l -49.552,-48.216 v -39.076 l 97.581,96.836 z"
       fill="#c75450" transform="translate(-22.35)" />
   </g>
   <g transform="translate(-15.755699,24.987877)">
      <path
       d="M 89.5375,138.293 143.12,86.1546 V 28.4272 c 0,-7.0149 -8.469,-10.5411 -13.448,-5.6005 L 13.3164,138.293 129.672,253.759 c 4.979,4.941 13.448,1.414 13.448,-5.601 V 190.43 Z"
       fill="#ffff80" transform="translate(22.35,89.4)" />
      <path
       d="m 219.71,175.002 h -73.353 l -37.726,-36.708 43.774,-42.5936 c 2.576,-2.5065 4.03,-5.9481 4.03,-9.5441 V 28.4272 c 0,-11.7023 -9.539,-21.22285 -21.263,-21.22285 -5.587,0 -10.871,2.19221 -14.881,6.16975 L 3.93655,128.84 C 1.41695,131.34 0,134.744 0,138.293 c 0,3.549 1.41695,6.953 3.93655,9.452 L 120.293,263.211 c 4.008,3.978 9.294,6.17 14.881,6.17 5.432,0 10.612,-2.044 14.586,-5.757 4.305,-4.023 6.677,-9.516 6.677,-15.466 v -46.523 h 63.274 c 7.354,0 13.316,-5.962 13.316,-13.317 0,-7.354 -5.962,-13.316 -13.317,-13.316 z M 129.804,235.128 32.2223,138.293 129.804,41.4565 V 80.5321 L 80.2519,128.749 c -2.5764,2.506 -4.03,5.948 -4.03,9.544 0,3.596 1.4528,7.036 4.03,9.544 l 49.5521,48.216 z"
       fill="#499c54" transform="translate(22.35,89.4)" />
   </g>
   <g>
      <path fill="#c87137"
       d="m 279.55687,13.945017 c 0,0 -23.45111,6.205759 -31.16778,14.077881 -7.20755,7.352744 -3.90688,25.078271 -3.90688,25.078271 -13.95336,7.91129 -27.74104,15.974898 -41.60068,24.008789 0,0 -13.70997,-11.732543 -23.6814,-9.166992 -10.67579,2.746764 -27.76289,19.970948 -27.76289,19.970948 0,0 11.62443,-0.531195 16.28232,2.79375 15.0986,10.777836 25.9295,10.367436 25.9295,10.367436 0,0 5.0096,22.58664 22.00078,31.80073 18.00751,9.76525 26.74942,29.83969 31.45151,32.43369 5.49228,3.02992 22.79415,-3.57483 29.7709,-7.90108 7.17648,-3.78628 21.76862,-15.59712 21.89165,-21.91347 0.10458,-5.36913 -12.92224,-22.97833 -12.37544,-43.45591 0.51595,-19.321837 -16.54424,-34.965527 -16.54424,-34.965527 0,0 5.77877,-9.167244 3.99419,-27.631934 -0.55054,-5.696325 5.71846,-15.496582 5.71846,-15.496582 z" />
      <path fill="#000000" transform="matrix(0.91934874,-0.39344364,0.41132242,0.91148992,0,0)"
       d="m 171.88586,181.8241 a 7.7632122,6.8111863 0 0 1 -7.76321,6.81118 7.7632122,6.8111863 0 0 1 -7.76321,-6.81118 7.7632122,6.8111863 0 0 1 7.76321,-6.81119 7.7632122,6.8111863 0 0 1 7.76321,6.81119 z" />
      <path fill="#000000" transform="matrix(0.91934874,-0.39344364,0.41132242,0.91148992,0,0)"
       d="m 205.78332,178.29883 a 7.7632122,6.8111863 0 0 1 -7.76321,6.81118 7.7632122,6.8111863 0 0 1 -7.76321,-6.81118 7.7632122,6.8111863 0 0 1 7.76321,-6.81119 7.7632122,6.8111863 0 0 1 7.76321,6.81119 z" />
      <path fill="#000000"
       d="m 167.14473,232.59339 c -0.50705,-0.26109 -1.07115,-0.40264 -1.65774,-0.40264 l -8.64419,-5.9e-4 c -2.34636,0 -4.25176,2.31564 -4.25176,5.18166 l 0.001,13.66069 c 0,2.86602 1.8999,5.17348 4.24626,5.17348 0.76869,0.61074 1.1999,1.38742 1.2056,2.23341 0.005,0.69176 -0.55391,1.28013 -0.96113,1.83935 -1.55292,2.13259 -3.92041,5.13942 -5.55058,5.64152 -1.9276,0.5937 -5.16081,0.14515 -7.82084,-0.68456 -2.66004,-0.82972 -4.62108,-1.8615 -4.62108,-1.8615 -1.37388,-0.72516 -3.07546,-0.19026 -3.7873,1.19057 -0.71067,1.37224 -0.17232,3.06075 1.20147,3.7684 0,0 2.37194,1.25188 5.53715,2.23917 3.16521,0.98728 7.50745,1.47634 11.14531,0.68853 3.0193,-0.65385 6.37459,-1.5064 8.18505,-4.34721 1.81078,2.84127 4.8808,3.6783 7.77411,4.33705 3.62412,0.82514 7.96454,0.3059 11.12975,-0.68139 3.16521,-0.98729 5.55167,-2.23853 5.55167,-2.23853 1.37284,-0.71022 1.90809,-2.4002 1.19444,-3.77126 -0.34332,-0.66133 -0.93661,-1.15812 -1.64797,-1.37991 -0.71027,-0.21842 -1.4783,-0.14488 -2.13421,0.20437 0,0 -1.95859,1.01501 -4.61863,1.84472 -2.66004,0.82972 -5.90751,1.28706 -7.8351,0.69335 -1.63017,-0.50209 -3.98416,-3.51379 -5.53824,-5.64216 -0.41066,-0.56242 -0.97892,-1.15159 -0.9745,-1.84796 0.005,-0.85149 0.66975,-1.66614 1.22013,-2.24428 2.34637,0 4.24085,-2.29674 4.24085,-5.16275 l -0.001,-13.66069 c 0,-2.14952 -1.06738,-3.98757 -2.58852,-4.77084 z"
       transform="rotate(-30)" />
   </g>
</svg>
