<svg width="523" height="109" viewBox="0 0 523 109" fill="none" xmlns="http://www.w3.org/2000/svg">
    <g clip-path="url(#clip0_422_88)">
        <path d="M0 54.5C0 24.4005 24.4005 0 54.5 0H468.5C498.6 0 523 24.4005 523 54.5V54.5C523 84.5995 498.6 109 468.5 109H54.5C24.4005 109 0 84.5995 0 54.5V54.5Z"
              fill="black"/>
        <path d="M385 54.5C385 24.4005 409.4 0 439.5 0H468.5C498.6 0 523 24.4005 523 54.5V54.5C523 84.5995 498.6 109 468.5 109H439.5C409.4 109 385 84.5995 385 54.5V54.5Z"
              fill="#FC7A0E"/>
        <path d="M375 109L469 0H368L335 109H375Z" fill="#E71D72"/>
        <path d="M442.5 109H373.5L394 42L442.5 109Z" fill="url(#paint0_linear_422_88)"/>
        <mask id="path-5-outside-1_422_88" maskUnits="userSpaceOnUse" x="76" y="37" width="371" height="37"
              fill="black">
            <rect fill="white" x="76" y="37" width="371" height="37"/>
            <path d="M96.0788 47.4706C95.7952 46.6042 95.4213 45.8278 94.9572 45.1415C94.5018 44.4467 93.956 43.8548 93.3201 43.3658C92.6927 42.8768 91.9794 42.5037 91.1802 42.2463C90.3809 41.989 89.5043 41.8603 88.5504 41.8603C86.9863 41.8603 85.564 42.2635 84.2834 43.0699C83.0029 43.8762 81.9845 45.0643 81.2283 46.6342C80.472 48.204 80.0939 50.1299 80.0939 52.4118C80.0939 54.6936 80.4763 56.6195 81.2412 58.1893C82.006 59.7592 83.0416 60.9473 84.3479 61.7537C85.6542 62.56 87.1238 62.9632 88.7566 62.9632C90.2692 62.9632 91.6013 62.6415 92.7529 61.9982C93.9131 61.3462 94.8154 60.4283 95.46 59.2445C96.1131 58.0521 96.4397 56.6495 96.4397 55.0368L97.4194 55.2426H89.4785V52.4118H99.5336V55.2426C99.5336 57.413 99.0695 59.3002 98.1413 60.9044C97.2218 62.5086 95.9499 63.7524 94.3256 64.636C92.7099 65.511 90.8536 65.9485 88.7566 65.9485C86.4191 65.9485 84.3651 65.3995 82.5947 64.3015C80.8329 63.2034 79.4579 61.6422 78.4696 59.6176C77.4899 57.5931 77 55.1912 77 52.4118C77 50.3272 77.2793 48.4528 77.8379 46.7886C78.4051 45.1158 79.2044 43.6918 80.2357 42.5165C81.2669 41.3413 82.4873 40.4406 83.8967 39.8143C85.3061 39.1881 86.8574 38.875 88.5504 38.875C89.9426 38.875 91.2403 39.0852 92.4435 39.5055C93.6552 39.9173 94.7338 40.5049 95.6791 41.2684C96.6331 42.0233 97.428 42.9283 98.064 43.9835C98.6999 45.03 99.1382 46.1924 99.3789 47.4706H96.0788Z"/>
            <path d="M112.898 66C110.99 66 109.345 65.5797 107.961 64.739C106.586 63.8897 105.525 62.7059 104.777 61.1875C104.038 59.6605 103.668 57.8848 103.668 55.8603C103.668 53.8358 104.038 52.0515 104.777 50.5074C105.525 48.9547 106.565 47.7451 107.897 46.8787C109.237 46.0037 110.801 45.5662 112.589 45.5662C113.62 45.5662 114.639 45.7377 115.644 46.0809C116.65 46.424 117.565 46.9816 118.39 47.7537C119.215 48.5172 119.872 49.5294 120.362 50.7904C120.852 52.0515 121.097 53.6042 121.097 55.4485V56.7353H105.834V54.1103H118.003C118.003 52.9951 117.78 52 117.333 51.125C116.895 50.25 116.267 49.5594 115.451 49.0533C114.643 48.5472 113.689 48.2941 112.589 48.2941C111.377 48.2941 110.329 48.5944 109.444 49.1949C108.567 49.7868 107.892 50.5588 107.42 51.511C106.947 52.4632 106.711 53.4841 106.711 54.5735V56.3235C106.711 57.8162 106.968 59.0815 107.484 60.1195C108.008 61.1489 108.735 61.9338 109.663 62.4743C110.591 63.0061 111.669 63.2721 112.898 63.2721C113.698 63.2721 114.42 63.1605 115.064 62.9375C115.717 62.7059 116.28 62.3627 116.753 61.9081C117.225 61.4449 117.591 60.8701 117.849 60.1838L120.788 61.0074C120.478 62.0025 119.958 62.8775 119.228 63.6324C118.497 64.3787 117.595 64.962 116.521 65.3824C115.446 65.7941 114.239 66 112.898 66Z"/>
            <path d="M134.336 45.8235V48.3971H124.075V45.8235H134.336ZM127.066 41.0882H130.108V59.9265C130.108 60.7843 130.233 61.4277 130.482 61.8566C130.74 62.277 131.066 62.56 131.461 62.7059C131.865 62.8431 132.291 62.9118 132.738 62.9118C133.073 62.9118 133.348 62.8946 133.563 62.8603C133.778 62.8174 133.949 62.7831 134.078 62.7574L134.697 65.4853C134.491 65.5625 134.203 65.6397 133.833 65.7169C133.464 65.8027 132.996 65.8456 132.428 65.8456C131.569 65.8456 130.727 65.6612 129.902 65.2923C129.085 64.9234 128.406 64.3615 127.865 63.6066C127.332 62.8517 127.066 61.8995 127.066 60.75V41.0882Z"/>
            <path d="M157.94 45.8235V48.3971H147.266V45.8235H157.94ZM150.463 65.5882V43.0956C150.463 41.9632 150.729 41.0196 151.262 40.2647C151.795 39.5098 152.487 38.9436 153.338 38.5662C154.188 38.1887 155.086 38 156.032 38C156.78 38 157.39 38.06 157.862 38.1801C158.335 38.3002 158.687 38.4118 158.919 38.5147L158.043 41.1397C157.888 41.0882 157.673 41.0239 157.398 40.9467C157.132 40.8695 156.78 40.8309 156.341 40.8309C155.336 40.8309 154.61 41.0839 154.163 41.5901C153.724 42.0962 153.505 42.8382 153.505 43.8162V65.5882H150.463Z"/>
            <path d="M162.203 65.5882V45.8235H165.143V48.8088H165.349C165.71 47.8309 166.363 47.0374 167.308 46.4283C168.254 45.8192 169.319 45.5147 170.505 45.5147C170.729 45.5147 171.008 45.519 171.343 45.5276C171.678 45.5362 171.932 45.549 172.104 45.5662V48.6544C172.001 48.6287 171.764 48.5901 171.395 48.5386C171.034 48.4786 170.651 48.4485 170.247 48.4485C169.285 48.4485 168.426 48.6501 167.669 49.0533C166.922 49.4479 166.329 49.9969 165.89 50.7004C165.461 51.3952 165.246 52.1887 165.246 53.0809V65.5882H162.203Z"/>
            <path d="M183.151 66C181.364 66 179.795 65.5754 178.446 64.7261C177.105 63.8768 176.057 62.6887 175.301 61.1618C174.553 59.6348 174.179 57.8505 174.179 55.8088C174.179 53.75 174.553 51.9528 175.301 50.4173C176.057 48.8817 177.105 47.6893 178.446 46.8401C179.795 45.9908 181.364 45.5662 183.151 45.5662C184.939 45.5662 186.503 45.9908 187.844 46.8401C189.193 47.6893 190.241 48.8817 190.989 50.4173C191.745 51.9528 192.124 53.75 192.124 55.8088C192.124 57.8505 191.745 59.6348 190.989 61.1618C190.241 62.6887 189.193 63.8768 187.844 64.7261C186.503 65.5754 184.939 66 183.151 66ZM183.151 63.2721C184.509 63.2721 185.626 62.9246 186.503 62.2298C187.38 61.5349 188.029 60.6213 188.45 59.489C188.871 58.3566 189.081 57.1299 189.081 55.8088C189.081 54.4877 188.871 53.2567 188.45 52.1158C188.029 50.9749 187.38 50.0527 186.503 49.3493C185.626 48.6458 184.509 48.2941 183.151 48.2941C181.794 48.2941 180.676 48.6458 179.8 49.3493C178.923 50.0527 178.274 50.9749 177.853 52.1158C177.432 53.2567 177.222 54.4877 177.222 55.8088C177.222 57.1299 177.432 58.3566 177.853 59.489C178.274 60.6213 178.923 61.5349 179.8 62.2298C180.676 62.9246 181.794 63.2721 183.151 63.2721Z"/>
            <path d="M196.768 65.5882V45.8235H199.707V48.9118H199.965C200.377 47.8566 201.043 47.0374 201.963 46.454C202.882 45.8621 203.987 45.5662 205.276 45.5662C206.582 45.5662 207.669 45.8621 208.537 46.454C209.414 47.0374 210.097 47.8566 210.587 48.9118H210.793C211.3 47.8909 212.061 47.0803 213.075 46.4798C214.089 45.8707 215.305 45.5662 216.723 45.5662C218.493 45.5662 219.941 46.1195 221.067 47.2261C222.193 48.3241 222.756 50.0355 222.756 52.3603V65.5882H219.714V52.3603C219.714 50.902 219.314 49.8597 218.515 49.2335C217.716 48.6072 216.774 48.2941 215.692 48.2941C214.299 48.2941 213.221 48.7145 212.456 49.5551C211.691 50.3873 211.309 51.4424 211.309 52.7206V65.5882H208.215V52.0515C208.215 50.9277 207.85 50.0227 207.119 49.3364C206.389 48.6415 205.448 48.2941 204.296 48.2941C203.505 48.2941 202.766 48.5043 202.079 48.9246C201.4 49.345 200.85 49.9283 200.429 50.6746C200.016 51.4124 199.81 52.2659 199.81 53.2353V65.5882H196.768Z"/>
            <path d="M238.941 39.2353H242.756L251.729 61.1103H252.038L261.01 39.2353H264.826V65.5882H261.835V45.5662H261.577L253.327 65.5882H250.439L242.189 45.5662H241.931V65.5882H238.941V39.2353Z"/>
            <path d="M276.65 66.0515C275.395 66.0515 274.257 65.8156 273.234 65.3437C272.211 64.8634 271.399 64.1728 270.798 63.2721C270.196 62.3627 269.895 61.2647 269.895 59.9779C269.895 58.8456 270.119 57.9277 270.566 57.2243C271.013 56.5123 271.61 55.9547 272.357 55.5515C273.105 55.1483 273.93 54.848 274.833 54.6507C275.744 54.4449 276.659 54.2819 277.578 54.1618C278.782 54.0074 279.757 53.8915 280.505 53.8143C281.261 53.7286 281.811 53.587 282.155 53.3897C282.507 53.1924 282.683 52.8493 282.683 52.3603V52.2574C282.683 50.9877 282.335 50.0012 281.639 49.2978C280.952 48.5944 279.907 48.2426 278.507 48.2426C277.054 48.2426 275.915 48.56 275.09 49.1949C274.265 49.8297 273.685 50.5074 273.35 51.2279L270.463 50.1985C270.978 48.9975 271.666 48.0625 272.525 47.3934C273.393 46.7157 274.338 46.2439 275.361 45.9779C276.392 45.7034 277.406 45.5662 278.403 45.5662C279.039 45.5662 279.77 45.6434 280.595 45.7978C281.429 45.9436 282.232 46.2482 283.006 46.7114C283.788 47.1746 284.436 47.8738 284.952 48.8088C285.468 49.7439 285.726 50.9963 285.726 52.5662V65.5882H282.683V62.9118H282.529C282.322 63.3407 281.979 63.7996 281.497 64.2886C281.016 64.7776 280.376 65.1936 279.576 65.5368C278.777 65.8799 277.802 66.0515 276.65 66.0515ZM277.114 63.3235C278.317 63.3235 279.332 63.0876 280.157 62.6158C280.99 62.144 281.618 61.5349 282.039 60.7886C282.468 60.0423 282.683 59.2574 282.683 58.4338V55.6544C282.554 55.8088 282.271 55.9504 281.832 56.079C281.403 56.1991 280.904 56.3064 280.337 56.4007C279.778 56.4865 279.233 56.5637 278.7 56.6324C278.176 56.6924 277.75 56.7439 277.424 56.7868C276.633 56.8897 275.894 57.057 275.206 57.2886C274.527 57.5116 273.977 57.8505 273.556 58.3051C273.144 58.7512 272.938 59.3603 272.938 60.1324C272.938 61.1875 273.329 61.9853 274.111 62.5257C274.901 63.0576 275.903 63.3235 277.114 63.3235Z"/>
            <path d="M291.278 65.5882V45.8235H294.218V48.8088H294.424C294.785 47.8309 295.438 47.0374 296.383 46.4283C297.329 45.8192 298.394 45.5147 299.58 45.5147C299.804 45.5147 300.083 45.519 300.418 45.5276C300.753 45.5362 301.007 45.549 301.179 45.5662V48.6544C301.076 48.6287 300.839 48.5901 300.47 48.5386C300.109 48.4786 299.726 48.4485 299.322 48.4485C298.36 48.4485 297.5 48.6501 296.744 49.0533C295.996 49.4479 295.403 49.9969 294.965 50.7004C294.535 51.3952 294.321 52.1887 294.321 53.0809V65.5882H291.278Z"/>
            <path d="M307.621 58.3824L307.569 54.625H308.188L316.851 45.8235H320.615L311.385 55.1397H311.127L307.621 58.3824ZM304.785 65.5882V39.2353H307.827V65.5882H304.785ZM317.367 65.5882L309.632 55.8088L311.798 53.6985L321.234 65.5882H317.367Z"/>
            <path d="M332.017 66C330.109 66 328.464 65.5797 327.08 64.739C325.705 63.8897 324.644 62.7059 323.896 61.1875C323.157 59.6605 322.787 57.8848 322.787 55.8603C322.787 53.8358 323.157 52.0515 323.896 50.5074C324.644 48.9547 325.683 47.7451 327.016 46.8787C328.356 46.0037 329.92 45.5662 331.708 45.5662C332.739 45.5662 333.758 45.7377 334.763 46.0809C335.769 46.424 336.684 46.9816 337.509 47.7537C338.334 48.5172 338.991 49.5294 339.481 50.7904C339.971 52.0515 340.216 53.6042 340.216 55.4485V56.7353H324.953V54.1103H337.122C337.122 52.9951 336.899 52 336.452 51.125C336.014 50.25 335.386 49.5594 334.57 49.0533C333.762 48.5472 332.808 48.2941 331.708 48.2941C330.496 48.2941 329.448 48.5944 328.562 49.1949C327.686 49.7868 327.011 50.5588 326.539 51.511C326.066 52.4632 325.83 53.4841 325.83 54.5735V56.3235C325.83 57.8162 326.087 59.0815 326.603 60.1195C327.127 61.1489 327.853 61.9338 328.782 62.4743C329.71 63.0061 330.788 63.2721 332.017 63.2721C332.817 63.2721 333.538 63.1605 334.183 62.9375C334.836 62.7059 335.399 62.3627 335.872 61.9081C336.344 61.4449 336.71 60.8701 336.967 60.1838L339.907 61.0074C339.597 62.0025 339.077 62.8775 338.347 63.6324C337.616 64.3787 336.714 64.962 335.64 65.3824C334.565 65.7941 333.358 66 332.017 66Z"/>
            <path d="M353.455 45.8235V48.3971H343.194V45.8235H353.455ZM346.185 41.0882H349.227V59.9265C349.227 60.7843 349.351 61.4277 349.601 61.8566C349.859 62.277 350.185 62.56 350.58 62.7059C350.984 62.8431 351.41 62.9118 351.857 62.9118C352.192 62.9118 352.467 62.8946 352.682 62.8603C352.897 62.8174 353.068 62.7831 353.197 62.7574L353.816 65.4853C353.61 65.5625 353.322 65.6397 352.952 65.7169C352.583 65.8027 352.114 65.8456 351.547 65.8456C350.688 65.8456 349.846 65.6612 349.021 65.2923C348.204 64.9234 347.525 64.3615 346.984 63.6066C346.451 62.8517 346.185 61.8995 346.185 60.75V41.0882Z"/>
            <path d="M358.031 73V45.8235H360.971V48.9632H361.332C361.555 48.6201 361.864 48.1826 362.26 47.6507C362.664 47.1103 363.239 46.6299 363.987 46.2096C364.743 45.7806 365.766 45.5662 367.055 45.5662C368.722 45.5662 370.192 45.9822 371.464 46.8143C372.736 47.6464 373.728 48.826 374.442 50.3529C375.155 51.8799 375.512 53.6814 375.512 55.7574C375.512 57.8505 375.155 59.6648 374.442 61.2004C373.728 62.7273 372.74 63.9112 371.477 64.7518C370.213 65.5839 368.757 66 367.107 66C365.835 66 364.816 65.7898 364.052 65.3695C363.287 64.9406 362.698 64.4559 362.285 63.9154C361.873 63.3664 361.555 62.9118 361.332 62.5515H361.074V73H358.031ZM361.022 55.7059C361.022 57.1985 361.241 58.5153 361.68 59.6562C362.118 60.7886 362.758 61.6765 363.6 62.3199C364.443 62.9547 365.474 63.2721 366.694 63.2721C367.966 63.2721 369.028 62.9375 369.878 62.2684C370.738 61.5907 371.382 60.6814 371.812 59.5404C372.25 58.3909 372.469 57.1127 372.469 55.7059C372.469 54.3162 372.255 53.0637 371.825 51.9485C371.404 50.8248 370.764 49.9369 369.904 49.2849C369.053 48.6244 367.983 48.2941 366.694 48.2941C365.457 48.2941 364.417 48.6072 363.575 49.2335C362.732 49.8511 362.096 50.7175 361.667 51.8327C361.237 52.9393 361.022 54.2304 361.022 55.7059Z"/>
            <path d="M383.195 39.2353V65.5882H380.152V39.2353H383.195Z"/>
            <path d="M394.594 66.0515C393.339 66.0515 392.2 65.8156 391.178 65.3437C390.155 64.8634 389.343 64.1728 388.741 63.2721C388.14 62.3627 387.839 61.2647 387.839 59.9779C387.839 58.8456 388.062 57.9277 388.509 57.2243C388.956 56.5123 389.553 55.9547 390.301 55.5515C391.049 55.1483 391.874 54.848 392.776 54.6507C393.687 54.4449 394.602 54.2819 395.522 54.1618C396.725 54.0074 397.7 53.8915 398.448 53.8143C399.204 53.7286 399.754 53.587 400.098 53.3897C400.451 53.1924 400.627 52.8493 400.627 52.3603V52.2574C400.627 50.9877 400.279 50.0012 399.583 49.2978C398.895 48.5944 397.851 48.2426 396.45 48.2426C394.998 48.2426 393.859 48.56 393.034 49.1949C392.209 49.8297 391.629 50.5074 391.294 51.2279L388.406 50.1985C388.922 48.9975 389.609 48.0625 390.469 47.3934C391.337 46.7157 392.282 46.2439 393.305 45.9779C394.336 45.7034 395.35 45.5662 396.347 45.5662C396.983 45.5662 397.713 45.6434 398.538 45.7978C399.372 45.9436 400.176 46.2482 400.949 46.7114C401.731 47.1746 402.38 47.8738 402.896 48.8088C403.411 49.7439 403.669 50.9963 403.669 52.5662V65.5882H400.627V62.9118H400.472C400.266 63.3407 399.922 63.7996 399.441 64.2886C398.959 64.7776 398.319 65.1936 397.52 65.5368C396.721 65.8799 395.745 66.0515 394.594 66.0515ZM395.058 63.3235C396.261 63.3235 397.275 63.0876 398.1 62.6158C398.934 62.144 399.561 61.5349 399.982 60.7886C400.412 60.0423 400.627 59.2574 400.627 58.4338V55.6544C400.498 55.8088 400.214 55.9504 399.776 56.079C399.346 56.1991 398.848 56.3064 398.281 56.4007C397.722 56.4865 397.176 56.5637 396.643 56.6324C396.119 56.6924 395.694 56.7439 395.367 56.7868C394.577 56.8897 393.837 57.057 393.15 57.2886C392.471 57.5116 391.921 57.8505 391.5 58.3051C391.087 58.7512 390.881 59.3603 390.881 60.1324C390.881 61.1875 391.272 61.9853 392.054 62.5257C392.845 63.0576 393.846 63.3235 395.058 63.3235Z"/>
            <path d="M417.266 66C415.41 66 413.811 65.5625 412.47 64.6875C411.13 63.8125 410.098 62.6072 409.377 61.0717C408.655 59.5362 408.294 57.7819 408.294 55.8088C408.294 53.8015 408.663 52.03 409.402 50.4945C410.15 48.9504 411.19 47.7451 412.522 46.8787C413.863 46.0037 415.427 45.5662 417.214 45.5662C418.607 45.5662 419.861 45.8235 420.978 46.3382C422.096 46.8529 423.011 47.5735 423.724 48.5C424.438 49.4265 424.88 50.5074 425.052 51.7426H422.01C421.778 50.8419 421.262 50.0441 420.463 49.3493C419.672 48.6458 418.607 48.2941 417.266 48.2941C416.08 48.2941 415.04 48.6029 414.146 49.2206C413.261 49.8297 412.569 50.6918 412.071 51.807C411.581 52.9136 411.336 54.2132 411.336 55.7059C411.336 57.2328 411.577 58.5625 412.058 59.6949C412.548 60.8272 413.235 61.7065 414.12 62.3327C415.014 62.9589 416.063 63.2721 417.266 63.2721C418.057 63.2721 418.774 63.1348 419.419 62.8603C420.063 62.5858 420.609 62.1912 421.056 61.6765C421.503 61.1618 421.821 60.5441 422.01 59.8235H425.052C424.88 60.9902 424.455 62.0411 423.776 62.9761C423.105 63.9026 422.216 64.6403 421.107 65.1893C420.007 65.7298 418.727 66 417.266 66Z"/>
            <path d="M437.801 66C435.893 66 434.248 65.5797 432.864 64.739C431.489 63.8897 430.428 62.7059 429.68 61.1875C428.941 59.6605 428.571 57.8848 428.571 55.8603C428.571 53.8358 428.941 52.0515 429.68 50.5074C430.428 48.9547 431.467 47.7451 432.8 46.8787C434.14 46.0037 435.704 45.5662 437.492 45.5662C438.523 45.5662 439.542 45.7377 440.547 46.0809C441.553 46.424 442.468 46.9816 443.293 47.7537C444.118 48.5172 444.775 49.5294 445.265 50.7904C445.755 52.0515 446 53.6042 446 55.4485V56.7353H430.737V54.1103H442.906C442.906 52.9951 442.683 52 442.236 51.125C441.798 50.25 441.17 49.5594 440.354 49.0533C439.546 48.5472 438.592 48.2941 437.492 48.2941C436.28 48.2941 435.232 48.5944 434.346 49.1949C433.47 49.7868 432.795 50.5588 432.323 51.511C431.85 52.4632 431.614 53.4841 431.614 54.5735V56.3235C431.614 57.8162 431.871 59.0815 432.387 60.1195C432.911 61.1489 433.637 61.9338 434.566 62.4743C435.494 63.0061 436.572 63.2721 437.801 63.2721C438.601 63.2721 439.322 63.1605 439.967 62.9375C440.62 62.7059 441.183 62.3627 441.656 61.9081C442.128 61.4449 442.494 60.8701 442.751 60.1838L445.691 61.0074C445.381 62.0025 444.861 62.8775 444.131 63.6324C443.4 64.3787 442.498 64.962 441.424 65.3824C440.349 65.7941 439.142 66 437.801 66Z"/>
        </mask>
        <path d="M96.0788 47.4706C95.7952 46.6042 95.4213 45.8278 94.9572 45.1415C94.5018 44.4467 93.956 43.8548 93.3201 43.3658C92.6927 42.8768 91.9794 42.5037 91.1802 42.2463C90.3809 41.989 89.5043 41.8603 88.5504 41.8603C86.9863 41.8603 85.564 42.2635 84.2834 43.0699C83.0029 43.8762 81.9845 45.0643 81.2283 46.6342C80.472 48.204 80.0939 50.1299 80.0939 52.4118C80.0939 54.6936 80.4763 56.6195 81.2412 58.1893C82.006 59.7592 83.0416 60.9473 84.3479 61.7537C85.6542 62.56 87.1238 62.9632 88.7566 62.9632C90.2692 62.9632 91.6013 62.6415 92.7529 61.9982C93.9131 61.3462 94.8154 60.4283 95.46 59.2445C96.1131 58.0521 96.4397 56.6495 96.4397 55.0368L97.4194 55.2426H89.4785V52.4118H99.5336V55.2426C99.5336 57.413 99.0695 59.3002 98.1413 60.9044C97.2218 62.5086 95.9499 63.7524 94.3256 64.636C92.7099 65.511 90.8536 65.9485 88.7566 65.9485C86.4191 65.9485 84.3651 65.3995 82.5947 64.3015C80.8329 63.2034 79.4579 61.6422 78.4696 59.6176C77.4899 57.5931 77 55.1912 77 52.4118C77 50.3272 77.2793 48.4528 77.8379 46.7886C78.4051 45.1158 79.2044 43.6918 80.2357 42.5165C81.2669 41.3413 82.4873 40.4406 83.8967 39.8143C85.3061 39.1881 86.8574 38.875 88.5504 38.875C89.9426 38.875 91.2403 39.0852 92.4435 39.5055C93.6552 39.9173 94.7338 40.5049 95.6791 41.2684C96.6331 42.0233 97.428 42.9283 98.064 43.9835C98.6999 45.03 99.1382 46.1924 99.3789 47.4706H96.0788Z"
              fill="white"/>
        <path d="M112.898 66C110.99 66 109.345 65.5797 107.961 64.739C106.586 63.8897 105.525 62.7059 104.777 61.1875C104.038 59.6605 103.668 57.8848 103.668 55.8603C103.668 53.8358 104.038 52.0515 104.777 50.5074C105.525 48.9547 106.565 47.7451 107.897 46.8787C109.237 46.0037 110.801 45.5662 112.589 45.5662C113.62 45.5662 114.639 45.7377 115.644 46.0809C116.65 46.424 117.565 46.9816 118.39 47.7537C119.215 48.5172 119.872 49.5294 120.362 50.7904C120.852 52.0515 121.097 53.6042 121.097 55.4485V56.7353H105.834V54.1103H118.003C118.003 52.9951 117.78 52 117.333 51.125C116.895 50.25 116.267 49.5594 115.451 49.0533C114.643 48.5472 113.689 48.2941 112.589 48.2941C111.377 48.2941 110.329 48.5944 109.444 49.1949C108.567 49.7868 107.892 50.5588 107.42 51.511C106.947 52.4632 106.711 53.4841 106.711 54.5735V56.3235C106.711 57.8162 106.968 59.0815 107.484 60.1195C108.008 61.1489 108.735 61.9338 109.663 62.4743C110.591 63.0061 111.669 63.2721 112.898 63.2721C113.698 63.2721 114.42 63.1605 115.064 62.9375C115.717 62.7059 116.28 62.3627 116.753 61.9081C117.225 61.4449 117.591 60.8701 117.849 60.1838L120.788 61.0074C120.478 62.0025 119.958 62.8775 119.228 63.6324C118.497 64.3787 117.595 64.962 116.521 65.3824C115.446 65.7941 114.239 66 112.898 66Z"
              fill="white"/>
        <path d="M134.336 45.8235V48.3971H124.075V45.8235H134.336ZM127.066 41.0882H130.108V59.9265C130.108 60.7843 130.233 61.4277 130.482 61.8566C130.74 62.277 131.066 62.56 131.461 62.7059C131.865 62.8431 132.291 62.9118 132.738 62.9118C133.073 62.9118 133.348 62.8946 133.563 62.8603C133.778 62.8174 133.949 62.7831 134.078 62.7574L134.697 65.4853C134.491 65.5625 134.203 65.6397 133.833 65.7169C133.464 65.8027 132.996 65.8456 132.428 65.8456C131.569 65.8456 130.727 65.6612 129.902 65.2923C129.085 64.9234 128.406 64.3615 127.865 63.6066C127.332 62.8517 127.066 61.8995 127.066 60.75V41.0882Z"
              fill="white"/>
        <path d="M157.94 45.8235V48.3971H147.266V45.8235H157.94ZM150.463 65.5882V43.0956C150.463 41.9632 150.729 41.0196 151.262 40.2647C151.795 39.5098 152.487 38.9436 153.338 38.5662C154.188 38.1887 155.086 38 156.032 38C156.78 38 157.39 38.06 157.862 38.1801C158.335 38.3002 158.687 38.4118 158.919 38.5147L158.043 41.1397C157.888 41.0882 157.673 41.0239 157.398 40.9467C157.132 40.8695 156.78 40.8309 156.341 40.8309C155.336 40.8309 154.61 41.0839 154.163 41.5901C153.724 42.0962 153.505 42.8382 153.505 43.8162V65.5882H150.463Z"
              fill="white"/>
        <path d="M162.203 65.5882V45.8235H165.143V48.8088H165.349C165.71 47.8309 166.363 47.0374 167.308 46.4283C168.254 45.8192 169.319 45.5147 170.505 45.5147C170.729 45.5147 171.008 45.519 171.343 45.5276C171.678 45.5362 171.932 45.549 172.104 45.5662V48.6544C172.001 48.6287 171.764 48.5901 171.395 48.5386C171.034 48.4786 170.651 48.4485 170.247 48.4485C169.285 48.4485 168.426 48.6501 167.669 49.0533C166.922 49.4479 166.329 49.9969 165.89 50.7004C165.461 51.3952 165.246 52.1887 165.246 53.0809V65.5882H162.203Z"
              fill="white"/>
        <path d="M183.151 66C181.364 66 179.795 65.5754 178.446 64.7261C177.105 63.8768 176.057 62.6887 175.301 61.1618C174.553 59.6348 174.179 57.8505 174.179 55.8088C174.179 53.75 174.553 51.9528 175.301 50.4173C176.057 48.8817 177.105 47.6893 178.446 46.8401C179.795 45.9908 181.364 45.5662 183.151 45.5662C184.939 45.5662 186.503 45.9908 187.844 46.8401C189.193 47.6893 190.241 48.8817 190.989 50.4173C191.745 51.9528 192.124 53.75 192.124 55.8088C192.124 57.8505 191.745 59.6348 190.989 61.1618C190.241 62.6887 189.193 63.8768 187.844 64.7261C186.503 65.5754 184.939 66 183.151 66ZM183.151 63.2721C184.509 63.2721 185.626 62.9246 186.503 62.2298C187.38 61.5349 188.029 60.6213 188.45 59.489C188.871 58.3566 189.081 57.1299 189.081 55.8088C189.081 54.4877 188.871 53.2567 188.45 52.1158C188.029 50.9749 187.38 50.0527 186.503 49.3493C185.626 48.6458 184.509 48.2941 183.151 48.2941C181.794 48.2941 180.676 48.6458 179.8 49.3493C178.923 50.0527 178.274 50.9749 177.853 52.1158C177.432 53.2567 177.222 54.4877 177.222 55.8088C177.222 57.1299 177.432 58.3566 177.853 59.489C178.274 60.6213 178.923 61.5349 179.8 62.2298C180.676 62.9246 181.794 63.2721 183.151 63.2721Z"
              fill="white"/>
        <path d="M196.768 65.5882V45.8235H199.707V48.9118H199.965C200.377 47.8566 201.043 47.0374 201.963 46.454C202.882 45.8621 203.987 45.5662 205.276 45.5662C206.582 45.5662 207.669 45.8621 208.537 46.454C209.414 47.0374 210.097 47.8566 210.587 48.9118H210.793C211.3 47.8909 212.061 47.0803 213.075 46.4798C214.089 45.8707 215.305 45.5662 216.723 45.5662C218.493 45.5662 219.941 46.1195 221.067 47.2261C222.193 48.3241 222.756 50.0355 222.756 52.3603V65.5882H219.714V52.3603C219.714 50.902 219.314 49.8597 218.515 49.2335C217.716 48.6072 216.774 48.2941 215.692 48.2941C214.299 48.2941 213.221 48.7145 212.456 49.5551C211.691 50.3873 211.309 51.4424 211.309 52.7206V65.5882H208.215V52.0515C208.215 50.9277 207.85 50.0227 207.119 49.3364C206.389 48.6415 205.448 48.2941 204.296 48.2941C203.505 48.2941 202.766 48.5043 202.079 48.9246C201.4 49.345 200.85 49.9283 200.429 50.6746C200.016 51.4124 199.81 52.2659 199.81 53.2353V65.5882H196.768Z"
              fill="white"/>
        <path d="M238.941 39.2353H242.756L251.729 61.1103H252.038L261.01 39.2353H264.826V65.5882H261.835V45.5662H261.577L253.327 65.5882H250.439L242.189 45.5662H241.931V65.5882H238.941V39.2353Z"
              fill="white"/>
        <path d="M276.65 66.0515C275.395 66.0515 274.257 65.8156 273.234 65.3437C272.211 64.8634 271.399 64.1728 270.798 63.2721C270.196 62.3627 269.895 61.2647 269.895 59.9779C269.895 58.8456 270.119 57.9277 270.566 57.2243C271.013 56.5123 271.61 55.9547 272.357 55.5515C273.105 55.1483 273.93 54.848 274.833 54.6507C275.744 54.4449 276.659 54.2819 277.578 54.1618C278.782 54.0074 279.757 53.8915 280.505 53.8143C281.261 53.7286 281.811 53.587 282.155 53.3897C282.507 53.1924 282.683 52.8493 282.683 52.3603V52.2574C282.683 50.9877 282.335 50.0012 281.639 49.2978C280.952 48.5944 279.907 48.2426 278.507 48.2426C277.054 48.2426 275.915 48.56 275.09 49.1949C274.265 49.8297 273.685 50.5074 273.35 51.2279L270.463 50.1985C270.978 48.9975 271.666 48.0625 272.525 47.3934C273.393 46.7157 274.338 46.2439 275.361 45.9779C276.392 45.7034 277.406 45.5662 278.403 45.5662C279.039 45.5662 279.77 45.6434 280.595 45.7978C281.429 45.9436 282.232 46.2482 283.006 46.7114C283.788 47.1746 284.436 47.8738 284.952 48.8088C285.468 49.7439 285.726 50.9963 285.726 52.5662V65.5882H282.683V62.9118H282.529C282.322 63.3407 281.979 63.7996 281.497 64.2886C281.016 64.7776 280.376 65.1936 279.576 65.5368C278.777 65.8799 277.802 66.0515 276.65 66.0515ZM277.114 63.3235C278.317 63.3235 279.332 63.0876 280.157 62.6158C280.99 62.144 281.618 61.5349 282.039 60.7886C282.468 60.0423 282.683 59.2574 282.683 58.4338V55.6544C282.554 55.8088 282.271 55.9504 281.832 56.079C281.403 56.1991 280.904 56.3064 280.337 56.4007C279.778 56.4865 279.233 56.5637 278.7 56.6324C278.176 56.6924 277.75 56.7439 277.424 56.7868C276.633 56.8897 275.894 57.057 275.206 57.2886C274.527 57.5116 273.977 57.8505 273.556 58.3051C273.144 58.7512 272.938 59.3603 272.938 60.1324C272.938 61.1875 273.329 61.9853 274.111 62.5257C274.901 63.0576 275.903 63.3235 277.114 63.3235Z"
              fill="white"/>
        <path d="M291.278 65.5882V45.8235H294.218V48.8088H294.424C294.785 47.8309 295.438 47.0374 296.383 46.4283C297.329 45.8192 298.394 45.5147 299.58 45.5147C299.804 45.5147 300.083 45.519 300.418 45.5276C300.753 45.5362 301.007 45.549 301.179 45.5662V48.6544C301.076 48.6287 300.839 48.5901 300.47 48.5386C300.109 48.4786 299.726 48.4485 299.322 48.4485C298.36 48.4485 297.5 48.6501 296.744 49.0533C295.996 49.4479 295.403 49.9969 294.965 50.7004C294.535 51.3952 294.321 52.1887 294.321 53.0809V65.5882H291.278Z"
              fill="white"/>
        <path d="M307.621 58.3824L307.569 54.625H308.188L316.851 45.8235H320.615L311.385 55.1397H311.127L307.621 58.3824ZM304.785 65.5882V39.2353H307.827V65.5882H304.785ZM317.367 65.5882L309.632 55.8088L311.798 53.6985L321.234 65.5882H317.367Z"
              fill="white"/>
        <path d="M332.017 66C330.109 66 328.464 65.5797 327.08 64.739C325.705 63.8897 324.644 62.7059 323.896 61.1875C323.157 59.6605 322.787 57.8848 322.787 55.8603C322.787 53.8358 323.157 52.0515 323.896 50.5074C324.644 48.9547 325.683 47.7451 327.016 46.8787C328.356 46.0037 329.92 45.5662 331.708 45.5662C332.739 45.5662 333.758 45.7377 334.763 46.0809C335.769 46.424 336.684 46.9816 337.509 47.7537C338.334 48.5172 338.991 49.5294 339.481 50.7904C339.971 52.0515 340.216 53.6042 340.216 55.4485V56.7353H324.953V54.1103H337.122C337.122 52.9951 336.899 52 336.452 51.125C336.014 50.25 335.386 49.5594 334.57 49.0533C333.762 48.5472 332.808 48.2941 331.708 48.2941C330.496 48.2941 329.448 48.5944 328.562 49.1949C327.686 49.7868 327.011 50.5588 326.539 51.511C326.066 52.4632 325.83 53.4841 325.83 54.5735V56.3235C325.83 57.8162 326.087 59.0815 326.603 60.1195C327.127 61.1489 327.853 61.9338 328.782 62.4743C329.71 63.0061 330.788 63.2721 332.017 63.2721C332.817 63.2721 333.538 63.1605 334.183 62.9375C334.836 62.7059 335.399 62.3627 335.872 61.9081C336.344 61.4449 336.71 60.8701 336.967 60.1838L339.907 61.0074C339.597 62.0025 339.077 62.8775 338.347 63.6324C337.616 64.3787 336.714 64.962 335.64 65.3824C334.565 65.7941 333.358 66 332.017 66Z"
              fill="white"/>
        <path d="M353.455 45.8235V48.3971H343.194V45.8235H353.455ZM346.185 41.0882H349.227V59.9265C349.227 60.7843 349.351 61.4277 349.601 61.8566C349.859 62.277 350.185 62.56 350.58 62.7059C350.984 62.8431 351.41 62.9118 351.857 62.9118C352.192 62.9118 352.467 62.8946 352.682 62.8603C352.897 62.8174 353.068 62.7831 353.197 62.7574L353.816 65.4853C353.61 65.5625 353.322 65.6397 352.952 65.7169C352.583 65.8027 352.114 65.8456 351.547 65.8456C350.688 65.8456 349.846 65.6612 349.021 65.2923C348.204 64.9234 347.525 64.3615 346.984 63.6066C346.451 62.8517 346.185 61.8995 346.185 60.75V41.0882Z"
              fill="white"/>
        <path d="M358.031 73V45.8235H360.971V48.9632H361.332C361.555 48.6201 361.864 48.1826 362.26 47.6507C362.664 47.1103 363.239 46.6299 363.987 46.2096C364.743 45.7806 365.766 45.5662 367.055 45.5662C368.722 45.5662 370.192 45.9822 371.464 46.8143C372.736 47.6464 373.728 48.826 374.442 50.3529C375.155 51.8799 375.512 53.6814 375.512 55.7574C375.512 57.8505 375.155 59.6648 374.442 61.2004C373.728 62.7273 372.74 63.9112 371.477 64.7518C370.213 65.5839 368.757 66 367.107 66C365.835 66 364.816 65.7898 364.052 65.3695C363.287 64.9406 362.698 64.4559 362.285 63.9154C361.873 63.3664 361.555 62.9118 361.332 62.5515H361.074V73H358.031ZM361.022 55.7059C361.022 57.1985 361.241 58.5153 361.68 59.6562C362.118 60.7886 362.758 61.6765 363.6 62.3199C364.443 62.9547 365.474 63.2721 366.694 63.2721C367.966 63.2721 369.028 62.9375 369.878 62.2684C370.738 61.5907 371.382 60.6814 371.812 59.5404C372.25 58.3909 372.469 57.1127 372.469 55.7059C372.469 54.3162 372.255 53.0637 371.825 51.9485C371.404 50.8248 370.764 49.9369 369.904 49.2849C369.053 48.6244 367.983 48.2941 366.694 48.2941C365.457 48.2941 364.417 48.6072 363.575 49.2335C362.732 49.8511 362.096 50.7175 361.667 51.8327C361.237 52.9393 361.022 54.2304 361.022 55.7059Z"
              fill="white"/>
        <path d="M383.195 39.2353V65.5882H380.152V39.2353H383.195Z" fill="white"/>
        <path d="M394.594 66.0515C393.339 66.0515 392.2 65.8156 391.178 65.3437C390.155 64.8634 389.343 64.1728 388.741 63.2721C388.14 62.3627 387.839 61.2647 387.839 59.9779C387.839 58.8456 388.062 57.9277 388.509 57.2243C388.956 56.5123 389.553 55.9547 390.301 55.5515C391.049 55.1483 391.874 54.848 392.776 54.6507C393.687 54.4449 394.602 54.2819 395.522 54.1618C396.725 54.0074 397.7 53.8915 398.448 53.8143C399.204 53.7286 399.754 53.587 400.098 53.3897C400.451 53.1924 400.627 52.8493 400.627 52.3603V52.2574C400.627 50.9877 400.279 50.0012 399.583 49.2978C398.895 48.5944 397.851 48.2426 396.45 48.2426C394.998 48.2426 393.859 48.56 393.034 49.1949C392.209 49.8297 391.629 50.5074 391.294 51.2279L388.406 50.1985C388.922 48.9975 389.609 48.0625 390.469 47.3934C391.337 46.7157 392.282 46.2439 393.305 45.9779C394.336 45.7034 395.35 45.5662 396.347 45.5662C396.983 45.5662 397.713 45.6434 398.538 45.7978C399.372 45.9436 400.176 46.2482 400.949 46.7114C401.731 47.1746 402.38 47.8738 402.896 48.8088C403.411 49.7439 403.669 50.9963 403.669 52.5662V65.5882H400.627V62.9118H400.472C400.266 63.3407 399.922 63.7996 399.441 64.2886C398.959 64.7776 398.319 65.1936 397.52 65.5368C396.721 65.8799 395.745 66.0515 394.594 66.0515ZM395.058 63.3235C396.261 63.3235 397.275 63.0876 398.1 62.6158C398.934 62.144 399.561 61.5349 399.982 60.7886C400.412 60.0423 400.627 59.2574 400.627 58.4338V55.6544C400.498 55.8088 400.214 55.9504 399.776 56.079C399.346 56.1991 398.848 56.3064 398.281 56.4007C397.722 56.4865 397.176 56.5637 396.643 56.6324C396.119 56.6924 395.694 56.7439 395.367 56.7868C394.577 56.8897 393.837 57.057 393.15 57.2886C392.471 57.5116 391.921 57.8505 391.5 58.3051C391.087 58.7512 390.881 59.3603 390.881 60.1324C390.881 61.1875 391.272 61.9853 392.054 62.5257C392.845 63.0576 393.846 63.3235 395.058 63.3235Z"
              fill="white"/>
        <path d="M417.266 66C415.41 66 413.811 65.5625 412.47 64.6875C411.13 63.8125 410.098 62.6072 409.377 61.0717C408.655 59.5362 408.294 57.7819 408.294 55.8088C408.294 53.8015 408.663 52.03 409.402 50.4945C410.15 48.9504 411.19 47.7451 412.522 46.8787C413.863 46.0037 415.427 45.5662 417.214 45.5662C418.607 45.5662 419.861 45.8235 420.978 46.3382C422.096 46.8529 423.011 47.5735 423.724 48.5C424.438 49.4265 424.88 50.5074 425.052 51.7426H422.01C421.778 50.8419 421.262 50.0441 420.463 49.3493C419.672 48.6458 418.607 48.2941 417.266 48.2941C416.08 48.2941 415.04 48.6029 414.146 49.2206C413.261 49.8297 412.569 50.6918 412.071 51.807C411.581 52.9136 411.336 54.2132 411.336 55.7059C411.336 57.2328 411.577 58.5625 412.058 59.6949C412.548 60.8272 413.235 61.7065 414.12 62.3327C415.014 62.9589 416.063 63.2721 417.266 63.2721C418.057 63.2721 418.774 63.1348 419.419 62.8603C420.063 62.5858 420.609 62.1912 421.056 61.6765C421.503 61.1618 421.821 60.5441 422.01 59.8235H425.052C424.88 60.9902 424.455 62.0411 423.776 62.9761C423.105 63.9026 422.216 64.6403 421.107 65.1893C420.007 65.7298 418.727 66 417.266 66Z"
              fill="white"/>
        <path d="M437.801 66C435.893 66 434.248 65.5797 432.864 64.739C431.489 63.8897 430.428 62.7059 429.68 61.1875C428.941 59.6605 428.571 57.8848 428.571 55.8603C428.571 53.8358 428.941 52.0515 429.68 50.5074C430.428 48.9547 431.467 47.7451 432.8 46.8787C434.14 46.0037 435.704 45.5662 437.492 45.5662C438.523 45.5662 439.542 45.7377 440.547 46.0809C441.553 46.424 442.468 46.9816 443.293 47.7537C444.118 48.5172 444.775 49.5294 445.265 50.7904C445.755 52.0515 446 53.6042 446 55.4485V56.7353H430.737V54.1103H442.906C442.906 52.9951 442.683 52 442.236 51.125C441.798 50.25 441.17 49.5594 440.354 49.0533C439.546 48.5472 438.592 48.2941 437.492 48.2941C436.28 48.2941 435.232 48.5944 434.346 49.1949C433.47 49.7868 432.795 50.5588 432.323 51.511C431.85 52.4632 431.614 53.4841 431.614 54.5735V56.3235C431.614 57.8162 431.871 59.0815 432.387 60.1195C432.911 61.1489 433.637 61.9338 434.566 62.4743C435.494 63.0061 436.572 63.2721 437.801 63.2721C438.601 63.2721 439.322 63.1605 439.967 62.9375C440.62 62.7059 441.183 62.3627 441.656 61.9081C442.128 61.4449 442.494 60.8701 442.751 60.1838L445.691 61.0074C445.381 62.0025 444.861 62.8775 444.131 63.6324C443.4 64.3787 442.498 64.962 441.424 65.3824C440.349 65.7941 439.142 66 437.801 66Z"
              fill="white"/>
        <path d="M96.0788 47.4706C95.7952 46.6042 95.4213 45.8278 94.9572 45.1415C94.5018 44.4467 93.956 43.8548 93.3201 43.3658C92.6927 42.8768 91.9794 42.5037 91.1802 42.2463C90.3809 41.989 89.5043 41.8603 88.5504 41.8603C86.9863 41.8603 85.564 42.2635 84.2834 43.0699C83.0029 43.8762 81.9845 45.0643 81.2283 46.6342C80.472 48.204 80.0939 50.1299 80.0939 52.4118C80.0939 54.6936 80.4763 56.6195 81.2412 58.1893C82.006 59.7592 83.0416 60.9473 84.3479 61.7537C85.6542 62.56 87.1238 62.9632 88.7566 62.9632C90.2692 62.9632 91.6013 62.6415 92.7529 61.9982C93.9131 61.3462 94.8154 60.4283 95.46 59.2445C96.1131 58.0521 96.4397 56.6495 96.4397 55.0368L97.4194 55.2426H89.4785V52.4118H99.5336V55.2426C99.5336 57.413 99.0695 59.3002 98.1413 60.9044C97.2218 62.5086 95.9499 63.7524 94.3256 64.636C92.7099 65.511 90.8536 65.9485 88.7566 65.9485C86.4191 65.9485 84.3651 65.3995 82.5947 64.3015C80.8329 63.2034 79.4579 61.6422 78.4696 59.6176C77.4899 57.5931 77 55.1912 77 52.4118C77 50.3272 77.2793 48.4528 77.8379 46.7886C78.4051 45.1158 79.2044 43.6918 80.2357 42.5165C81.2669 41.3413 82.4873 40.4406 83.8967 39.8143C85.3061 39.1881 86.8574 38.875 88.5504 38.875C89.9426 38.875 91.2403 39.0852 92.4435 39.5055C93.6552 39.9173 94.7338 40.5049 95.6791 41.2684C96.6331 42.0233 97.428 42.9283 98.064 43.9835C98.6999 45.03 99.1382 46.1924 99.3789 47.4706H96.0788Z"
              stroke="white" stroke-width="2" mask="url(#path-5-outside-1_422_88)"/>
        <path d="M112.898 66C110.99 66 109.345 65.5797 107.961 64.739C106.586 63.8897 105.525 62.7059 104.777 61.1875C104.038 59.6605 103.668 57.8848 103.668 55.8603C103.668 53.8358 104.038 52.0515 104.777 50.5074C105.525 48.9547 106.565 47.7451 107.897 46.8787C109.237 46.0037 110.801 45.5662 112.589 45.5662C113.62 45.5662 114.639 45.7377 115.644 46.0809C116.65 46.424 117.565 46.9816 118.39 47.7537C119.215 48.5172 119.872 49.5294 120.362 50.7904C120.852 52.0515 121.097 53.6042 121.097 55.4485V56.7353H105.834V54.1103H118.003C118.003 52.9951 117.78 52 117.333 51.125C116.895 50.25 116.267 49.5594 115.451 49.0533C114.643 48.5472 113.689 48.2941 112.589 48.2941C111.377 48.2941 110.329 48.5944 109.444 49.1949C108.567 49.7868 107.892 50.5588 107.42 51.511C106.947 52.4632 106.711 53.4841 106.711 54.5735V56.3235C106.711 57.8162 106.968 59.0815 107.484 60.1195C108.008 61.1489 108.735 61.9338 109.663 62.4743C110.591 63.0061 111.669 63.2721 112.898 63.2721C113.698 63.2721 114.42 63.1605 115.064 62.9375C115.717 62.7059 116.28 62.3627 116.753 61.9081C117.225 61.4449 117.591 60.8701 117.849 60.1838L120.788 61.0074C120.478 62.0025 119.958 62.8775 119.228 63.6324C118.497 64.3787 117.595 64.962 116.521 65.3824C115.446 65.7941 114.239 66 112.898 66Z"
              stroke="white" stroke-width="2" mask="url(#path-5-outside-1_422_88)"/>
        <path d="M134.336 45.8235V48.3971H124.075V45.8235H134.336ZM127.066 41.0882H130.108V59.9265C130.108 60.7843 130.233 61.4277 130.482 61.8566C130.74 62.277 131.066 62.56 131.461 62.7059C131.865 62.8431 132.291 62.9118 132.738 62.9118C133.073 62.9118 133.348 62.8946 133.563 62.8603C133.778 62.8174 133.949 62.7831 134.078 62.7574L134.697 65.4853C134.491 65.5625 134.203 65.6397 133.833 65.7169C133.464 65.8027 132.996 65.8456 132.428 65.8456C131.569 65.8456 130.727 65.6612 129.902 65.2923C129.085 64.9234 128.406 64.3615 127.865 63.6066C127.332 62.8517 127.066 61.8995 127.066 60.75V41.0882Z"
              stroke="white" stroke-width="2" mask="url(#path-5-outside-1_422_88)"/>
        <path d="M157.94 45.8235V48.3971H147.266V45.8235H157.94ZM150.463 65.5882V43.0956C150.463 41.9632 150.729 41.0196 151.262 40.2647C151.795 39.5098 152.487 38.9436 153.338 38.5662C154.188 38.1887 155.086 38 156.032 38C156.78 38 157.39 38.06 157.862 38.1801C158.335 38.3002 158.687 38.4118 158.919 38.5147L158.043 41.1397C157.888 41.0882 157.673 41.0239 157.398 40.9467C157.132 40.8695 156.78 40.8309 156.341 40.8309C155.336 40.8309 154.61 41.0839 154.163 41.5901C153.724 42.0962 153.505 42.8382 153.505 43.8162V65.5882H150.463Z"
              stroke="white" stroke-width="2" mask="url(#path-5-outside-1_422_88)"/>
        <path d="M162.203 65.5882V45.8235H165.143V48.8088H165.349C165.71 47.8309 166.363 47.0374 167.308 46.4283C168.254 45.8192 169.319 45.5147 170.505 45.5147C170.729 45.5147 171.008 45.519 171.343 45.5276C171.678 45.5362 171.932 45.549 172.104 45.5662V48.6544C172.001 48.6287 171.764 48.5901 171.395 48.5386C171.034 48.4786 170.651 48.4485 170.247 48.4485C169.285 48.4485 168.426 48.6501 167.669 49.0533C166.922 49.4479 166.329 49.9969 165.89 50.7004C165.461 51.3952 165.246 52.1887 165.246 53.0809V65.5882H162.203Z"
              stroke="white" stroke-width="2" mask="url(#path-5-outside-1_422_88)"/>
        <path d="M183.151 66C181.364 66 179.795 65.5754 178.446 64.7261C177.105 63.8768 176.057 62.6887 175.301 61.1618C174.553 59.6348 174.179 57.8505 174.179 55.8088C174.179 53.75 174.553 51.9528 175.301 50.4173C176.057 48.8817 177.105 47.6893 178.446 46.8401C179.795 45.9908 181.364 45.5662 183.151 45.5662C184.939 45.5662 186.503 45.9908 187.844 46.8401C189.193 47.6893 190.241 48.8817 190.989 50.4173C191.745 51.9528 192.124 53.75 192.124 55.8088C192.124 57.8505 191.745 59.6348 190.989 61.1618C190.241 62.6887 189.193 63.8768 187.844 64.7261C186.503 65.5754 184.939 66 183.151 66ZM183.151 63.2721C184.509 63.2721 185.626 62.9246 186.503 62.2298C187.38 61.5349 188.029 60.6213 188.45 59.489C188.871 58.3566 189.081 57.1299 189.081 55.8088C189.081 54.4877 188.871 53.2567 188.45 52.1158C188.029 50.9749 187.38 50.0527 186.503 49.3493C185.626 48.6458 184.509 48.2941 183.151 48.2941C181.794 48.2941 180.676 48.6458 179.8 49.3493C178.923 50.0527 178.274 50.9749 177.853 52.1158C177.432 53.2567 177.222 54.4877 177.222 55.8088C177.222 57.1299 177.432 58.3566 177.853 59.489C178.274 60.6213 178.923 61.5349 179.8 62.2298C180.676 62.9246 181.794 63.2721 183.151 63.2721Z"
              stroke="white" stroke-width="2" mask="url(#path-5-outside-1_422_88)"/>
        <path d="M196.768 65.5882V45.8235H199.707V48.9118H199.965C200.377 47.8566 201.043 47.0374 201.963 46.454C202.882 45.8621 203.987 45.5662 205.276 45.5662C206.582 45.5662 207.669 45.8621 208.537 46.454C209.414 47.0374 210.097 47.8566 210.587 48.9118H210.793C211.3 47.8909 212.061 47.0803 213.075 46.4798C214.089 45.8707 215.305 45.5662 216.723 45.5662C218.493 45.5662 219.941 46.1195 221.067 47.2261C222.193 48.3241 222.756 50.0355 222.756 52.3603V65.5882H219.714V52.3603C219.714 50.902 219.314 49.8597 218.515 49.2335C217.716 48.6072 216.774 48.2941 215.692 48.2941C214.299 48.2941 213.221 48.7145 212.456 49.5551C211.691 50.3873 211.309 51.4424 211.309 52.7206V65.5882H208.215V52.0515C208.215 50.9277 207.85 50.0227 207.119 49.3364C206.389 48.6415 205.448 48.2941 204.296 48.2941C203.505 48.2941 202.766 48.5043 202.079 48.9246C201.4 49.345 200.85 49.9283 200.429 50.6746C200.016 51.4124 199.81 52.2659 199.81 53.2353V65.5882H196.768Z"
              stroke="white" stroke-width="2" mask="url(#path-5-outside-1_422_88)"/>
        <path d="M238.941 39.2353H242.756L251.729 61.1103H252.038L261.01 39.2353H264.826V65.5882H261.835V45.5662H261.577L253.327 65.5882H250.439L242.189 45.5662H241.931V65.5882H238.941V39.2353Z"
              stroke="white" stroke-width="2" mask="url(#path-5-outside-1_422_88)"/>
        <path d="M276.65 66.0515C275.395 66.0515 274.257 65.8156 273.234 65.3437C272.211 64.8634 271.399 64.1728 270.798 63.2721C270.196 62.3627 269.895 61.2647 269.895 59.9779C269.895 58.8456 270.119 57.9277 270.566 57.2243C271.013 56.5123 271.61 55.9547 272.357 55.5515C273.105 55.1483 273.93 54.848 274.833 54.6507C275.744 54.4449 276.659 54.2819 277.578 54.1618C278.782 54.0074 279.757 53.8915 280.505 53.8143C281.261 53.7286 281.811 53.587 282.155 53.3897C282.507 53.1924 282.683 52.8493 282.683 52.3603V52.2574C282.683 50.9877 282.335 50.0012 281.639 49.2978C280.952 48.5944 279.907 48.2426 278.507 48.2426C277.054 48.2426 275.915 48.56 275.09 49.1949C274.265 49.8297 273.685 50.5074 273.35 51.2279L270.463 50.1985C270.978 48.9975 271.666 48.0625 272.525 47.3934C273.393 46.7157 274.338 46.2439 275.361 45.9779C276.392 45.7034 277.406 45.5662 278.403 45.5662C279.039 45.5662 279.77 45.6434 280.595 45.7978C281.429 45.9436 282.232 46.2482 283.006 46.7114C283.788 47.1746 284.436 47.8738 284.952 48.8088C285.468 49.7439 285.726 50.9963 285.726 52.5662V65.5882H282.683V62.9118H282.529C282.322 63.3407 281.979 63.7996 281.497 64.2886C281.016 64.7776 280.376 65.1936 279.576 65.5368C278.777 65.8799 277.802 66.0515 276.65 66.0515ZM277.114 63.3235C278.317 63.3235 279.332 63.0876 280.157 62.6158C280.99 62.144 281.618 61.5349 282.039 60.7886C282.468 60.0423 282.683 59.2574 282.683 58.4338V55.6544C282.554 55.8088 282.271 55.9504 281.832 56.079C281.403 56.1991 280.904 56.3064 280.337 56.4007C279.778 56.4865 279.233 56.5637 278.7 56.6324C278.176 56.6924 277.75 56.7439 277.424 56.7868C276.633 56.8897 275.894 57.057 275.206 57.2886C274.527 57.5116 273.977 57.8505 273.556 58.3051C273.144 58.7512 272.938 59.3603 272.938 60.1324C272.938 61.1875 273.329 61.9853 274.111 62.5257C274.901 63.0576 275.903 63.3235 277.114 63.3235Z"
              stroke="white" stroke-width="2" mask="url(#path-5-outside-1_422_88)"/>
        <path d="M291.278 65.5882V45.8235H294.218V48.8088H294.424C294.785 47.8309 295.438 47.0374 296.383 46.4283C297.329 45.8192 298.394 45.5147 299.58 45.5147C299.804 45.5147 300.083 45.519 300.418 45.5276C300.753 45.5362 301.007 45.549 301.179 45.5662V48.6544C301.076 48.6287 300.839 48.5901 300.47 48.5386C300.109 48.4786 299.726 48.4485 299.322 48.4485C298.36 48.4485 297.5 48.6501 296.744 49.0533C295.996 49.4479 295.403 49.9969 294.965 50.7004C294.535 51.3952 294.321 52.1887 294.321 53.0809V65.5882H291.278Z"
              stroke="white" stroke-width="2" mask="url(#path-5-outside-1_422_88)"/>
        <path d="M307.621 58.3824L307.569 54.625H308.188L316.851 45.8235H320.615L311.385 55.1397H311.127L307.621 58.3824ZM304.785 65.5882V39.2353H307.827V65.5882H304.785ZM317.367 65.5882L309.632 55.8088L311.798 53.6985L321.234 65.5882H317.367Z"
              stroke="white" stroke-width="2" mask="url(#path-5-outside-1_422_88)"/>
        <path d="M332.017 66C330.109 66 328.464 65.5797 327.08 64.739C325.705 63.8897 324.644 62.7059 323.896 61.1875C323.157 59.6605 322.787 57.8848 322.787 55.8603C322.787 53.8358 323.157 52.0515 323.896 50.5074C324.644 48.9547 325.683 47.7451 327.016 46.8787C328.356 46.0037 329.92 45.5662 331.708 45.5662C332.739 45.5662 333.758 45.7377 334.763 46.0809C335.769 46.424 336.684 46.9816 337.509 47.7537C338.334 48.5172 338.991 49.5294 339.481 50.7904C339.971 52.0515 340.216 53.6042 340.216 55.4485V56.7353H324.953V54.1103H337.122C337.122 52.9951 336.899 52 336.452 51.125C336.014 50.25 335.386 49.5594 334.57 49.0533C333.762 48.5472 332.808 48.2941 331.708 48.2941C330.496 48.2941 329.448 48.5944 328.562 49.1949C327.686 49.7868 327.011 50.5588 326.539 51.511C326.066 52.4632 325.83 53.4841 325.83 54.5735V56.3235C325.83 57.8162 326.087 59.0815 326.603 60.1195C327.127 61.1489 327.853 61.9338 328.782 62.4743C329.71 63.0061 330.788 63.2721 332.017 63.2721C332.817 63.2721 333.538 63.1605 334.183 62.9375C334.836 62.7059 335.399 62.3627 335.872 61.9081C336.344 61.4449 336.71 60.8701 336.967 60.1838L339.907 61.0074C339.597 62.0025 339.077 62.8775 338.347 63.6324C337.616 64.3787 336.714 64.962 335.64 65.3824C334.565 65.7941 333.358 66 332.017 66Z"
              stroke="white" stroke-width="2" mask="url(#path-5-outside-1_422_88)"/>
        <path d="M353.455 45.8235V48.3971H343.194V45.8235H353.455ZM346.185 41.0882H349.227V59.9265C349.227 60.7843 349.351 61.4277 349.601 61.8566C349.859 62.277 350.185 62.56 350.58 62.7059C350.984 62.8431 351.41 62.9118 351.857 62.9118C352.192 62.9118 352.467 62.8946 352.682 62.8603C352.897 62.8174 353.068 62.7831 353.197 62.7574L353.816 65.4853C353.61 65.5625 353.322 65.6397 352.952 65.7169C352.583 65.8027 352.114 65.8456 351.547 65.8456C350.688 65.8456 349.846 65.6612 349.021 65.2923C348.204 64.9234 347.525 64.3615 346.984 63.6066C346.451 62.8517 346.185 61.8995 346.185 60.75V41.0882Z"
              stroke="white" stroke-width="2" mask="url(#path-5-outside-1_422_88)"/>
        <path d="M358.031 73V45.8235H360.971V48.9632H361.332C361.555 48.6201 361.864 48.1826 362.26 47.6507C362.664 47.1103 363.239 46.6299 363.987 46.2096C364.743 45.7806 365.766 45.5662 367.055 45.5662C368.722 45.5662 370.192 45.9822 371.464 46.8143C372.736 47.6464 373.728 48.826 374.442 50.3529C375.155 51.8799 375.512 53.6814 375.512 55.7574C375.512 57.8505 375.155 59.6648 374.442 61.2004C373.728 62.7273 372.74 63.9112 371.477 64.7518C370.213 65.5839 368.757 66 367.107 66C365.835 66 364.816 65.7898 364.052 65.3695C363.287 64.9406 362.698 64.4559 362.285 63.9154C361.873 63.3664 361.555 62.9118 361.332 62.5515H361.074V73H358.031ZM361.022 55.7059C361.022 57.1985 361.241 58.5153 361.68 59.6562C362.118 60.7886 362.758 61.6765 363.6 62.3199C364.443 62.9547 365.474 63.2721 366.694 63.2721C367.966 63.2721 369.028 62.9375 369.878 62.2684C370.738 61.5907 371.382 60.6814 371.812 59.5404C372.25 58.3909 372.469 57.1127 372.469 55.7059C372.469 54.3162 372.255 53.0637 371.825 51.9485C371.404 50.8248 370.764 49.9369 369.904 49.2849C369.053 48.6244 367.983 48.2941 366.694 48.2941C365.457 48.2941 364.417 48.6072 363.575 49.2335C362.732 49.8511 362.096 50.7175 361.667 51.8327C361.237 52.9393 361.022 54.2304 361.022 55.7059Z"
              stroke="white" stroke-width="2" mask="url(#path-5-outside-1_422_88)"/>
        <path d="M383.195 39.2353V65.5882H380.152V39.2353H383.195Z" stroke="white" stroke-width="2"
              mask="url(#path-5-outside-1_422_88)"/>
        <path d="M394.594 66.0515C393.339 66.0515 392.2 65.8156 391.178 65.3437C390.155 64.8634 389.343 64.1728 388.741 63.2721C388.14 62.3627 387.839 61.2647 387.839 59.9779C387.839 58.8456 388.062 57.9277 388.509 57.2243C388.956 56.5123 389.553 55.9547 390.301 55.5515C391.049 55.1483 391.874 54.848 392.776 54.6507C393.687 54.4449 394.602 54.2819 395.522 54.1618C396.725 54.0074 397.7 53.8915 398.448 53.8143C399.204 53.7286 399.754 53.587 400.098 53.3897C400.451 53.1924 400.627 52.8493 400.627 52.3603V52.2574C400.627 50.9877 400.279 50.0012 399.583 49.2978C398.895 48.5944 397.851 48.2426 396.45 48.2426C394.998 48.2426 393.859 48.56 393.034 49.1949C392.209 49.8297 391.629 50.5074 391.294 51.2279L388.406 50.1985C388.922 48.9975 389.609 48.0625 390.469 47.3934C391.337 46.7157 392.282 46.2439 393.305 45.9779C394.336 45.7034 395.35 45.5662 396.347 45.5662C396.983 45.5662 397.713 45.6434 398.538 45.7978C399.372 45.9436 400.176 46.2482 400.949 46.7114C401.731 47.1746 402.38 47.8738 402.896 48.8088C403.411 49.7439 403.669 50.9963 403.669 52.5662V65.5882H400.627V62.9118H400.472C400.266 63.3407 399.922 63.7996 399.441 64.2886C398.959 64.7776 398.319 65.1936 397.52 65.5368C396.721 65.8799 395.745 66.0515 394.594 66.0515ZM395.058 63.3235C396.261 63.3235 397.275 63.0876 398.1 62.6158C398.934 62.144 399.561 61.5349 399.982 60.7886C400.412 60.0423 400.627 59.2574 400.627 58.4338V55.6544C400.498 55.8088 400.214 55.9504 399.776 56.079C399.346 56.1991 398.848 56.3064 398.281 56.4007C397.722 56.4865 397.176 56.5637 396.643 56.6324C396.119 56.6924 395.694 56.7439 395.367 56.7868C394.577 56.8897 393.837 57.057 393.15 57.2886C392.471 57.5116 391.921 57.8505 391.5 58.3051C391.087 58.7512 390.881 59.3603 390.881 60.1324C390.881 61.1875 391.272 61.9853 392.054 62.5257C392.845 63.0576 393.846 63.3235 395.058 63.3235Z"
              stroke="white" stroke-width="2" mask="url(#path-5-outside-1_422_88)"/>
        <path d="M417.266 66C415.41 66 413.811 65.5625 412.47 64.6875C411.13 63.8125 410.098 62.6072 409.377 61.0717C408.655 59.5362 408.294 57.7819 408.294 55.8088C408.294 53.8015 408.663 52.03 409.402 50.4945C410.15 48.9504 411.19 47.7451 412.522 46.8787C413.863 46.0037 415.427 45.5662 417.214 45.5662C418.607 45.5662 419.861 45.8235 420.978 46.3382C422.096 46.8529 423.011 47.5735 423.724 48.5C424.438 49.4265 424.88 50.5074 425.052 51.7426H422.01C421.778 50.8419 421.262 50.0441 420.463 49.3493C419.672 48.6458 418.607 48.2941 417.266 48.2941C416.08 48.2941 415.04 48.6029 414.146 49.2206C413.261 49.8297 412.569 50.6918 412.071 51.807C411.581 52.9136 411.336 54.2132 411.336 55.7059C411.336 57.2328 411.577 58.5625 412.058 59.6949C412.548 60.8272 413.235 61.7065 414.12 62.3327C415.014 62.9589 416.063 63.2721 417.266 63.2721C418.057 63.2721 418.774 63.1348 419.419 62.8603C420.063 62.5858 420.609 62.1912 421.056 61.6765C421.503 61.1618 421.821 60.5441 422.01 59.8235H425.052C424.88 60.9902 424.455 62.0411 423.776 62.9761C423.105 63.9026 422.216 64.6403 421.107 65.1893C420.007 65.7298 418.727 66 417.266 66Z"
              stroke="white" stroke-width="2" mask="url(#path-5-outside-1_422_88)"/>
        <path d="M437.801 66C435.893 66 434.248 65.5797 432.864 64.739C431.489 63.8897 430.428 62.7059 429.68 61.1875C428.941 59.6605 428.571 57.8848 428.571 55.8603C428.571 53.8358 428.941 52.0515 429.68 50.5074C430.428 48.9547 431.467 47.7451 432.8 46.8787C434.14 46.0037 435.704 45.5662 437.492 45.5662C438.523 45.5662 439.542 45.7377 440.547 46.0809C441.553 46.424 442.468 46.9816 443.293 47.7537C444.118 48.5172 444.775 49.5294 445.265 50.7904C445.755 52.0515 446 53.6042 446 55.4485V56.7353H430.737V54.1103H442.906C442.906 52.9951 442.683 52 442.236 51.125C441.798 50.25 441.17 49.5594 440.354 49.0533C439.546 48.5472 438.592 48.2941 437.492 48.2941C436.28 48.2941 435.232 48.5944 434.346 49.1949C433.47 49.7868 432.795 50.5588 432.323 51.511C431.85 52.4632 431.614 53.4841 431.614 54.5735V56.3235C431.614 57.8162 431.871 59.0815 432.387 60.1195C432.911 61.1489 433.637 61.9338 434.566 62.4743C435.494 63.0061 436.572 63.2721 437.801 63.2721C438.601 63.2721 439.322 63.1605 439.967 62.9375C440.62 62.7059 441.183 62.3627 441.656 61.9081C442.128 61.4449 442.494 60.8701 442.751 60.1838L445.691 61.0074C445.381 62.0025 444.861 62.8775 444.131 63.6324C443.4 64.3787 442.498 64.962 441.424 65.3824C440.349 65.7941 439.142 66 437.801 66Z"
              stroke="white" stroke-width="2" mask="url(#path-5-outside-1_422_88)"/>
    </g>
    <defs>
        <linearGradient id="paint0_linear_422_88" x1="408" y1="42" x2="408" y2="109" gradientUnits="userSpaceOnUse">
            <stop stop-color="#F42258"/>
            <stop offset="1" stop-color="#FB3729"/>
        </linearGradient>
        <clipPath id="clip0_422_88">
            <rect width="523" height="109" fill="white"/>
        </clipPath>
    </defs>
</svg>
