<?xml version="1.0" encoding="utf-8"?>

<!DOCTYPE svg PUBLIC "-//W3C//DTD SVG 1.1//EN" "http://www.w3.org/Graphics/SVG/1.1/DTD/svg11.dtd">
<!-- Uploaded to: SVG Repo, www.svgrepo.com, Generator: SVG Repo Mixer Tools -->

<svg width="16" height="16" viewBox="0 0 800 800" fill="none" xmlns="http://www.w3.org/2000/svg">
    <g clip-path="url(#clip0_411_25)">
        <rect width="800" height="800" fill="none"/>
        <path d="M700 150H450V100C450 86.7392 444.732 74.0215 435.355 64.6447C425.979 55.2678 413.261 50 400 50H100C86.7392 50 74.0215 55.2678 64.6447 64.6447C55.2678 74.0215 50 86.7392 50 100V600C50 613.261 55.2678 625.979 64.6447 635.355C74.0215 644.732 86.7392 650 100 650H350V700C350 713.261 355.268 725.979 364.645 735.355C374.021 744.732 386.739 750 400 750H700C713.261 750 725.979 744.732 735.355 735.355C744.732 725.979 750 713.261 750 700V200C750 186.739 744.732 174.021 735.355 164.645C725.979 155.268 713.261 150 700 150ZM100 375H254.25L189.75 439.75L225 475L350 350L225 225L189.75 260.25L254.25 325H100V100H400V600H100V375ZM400 700V650C413.261 650 425.979 644.732 435.355 635.355C444.732 625.979 450 613.261 450 600V200H700V425H545.75L610.25 360.25L575 325L450 450L575 575L610.25 539.75L545.75 475H700V700H400Z"
              fill="white"/>
    </g>
    <defs>
        <clipPath id="clip0_411_25">
            <rect width="800" height="800" fill="#EBEBEB"/>
        </clipPath>
    </defs>
</svg>
