<svg width="16" height="16" viewBox="0 0 706 706" fill="none" xmlns="http://www.w3.org/2000/svg">
    <rect x="353" y="18" width="170" height="670" fill="#FF3243"/>
    <rect x="353" y="18" width="335" height="670" rx="80" fill="#FF3243"/>
    <rect x="189" y="18" width="164" height="670" fill="#4ACD61"/>
    <rect x="18" y="18" width="335" height="670" rx="80" fill="#4ACD61"/>
    <rect x="89" y="86" width="238" height="40" rx="20" fill="#D9D9D9" fill-opacity="0.75"/>
    <rect x="89" y="156" width="238" height="40" rx="20" fill="#D9D9D9" fill-opacity="0.75"/>
    <rect x="89" y="226" width="238" height="40" rx="20" fill="#D9D9D9" fill-opacity="0.75"/>
    <rect x="383" y="439" width="238" height="40" rx="20" fill="#D9D9D9" fill-opacity="0.75"/>
    <rect x="383" y="509" width="238" height="40" rx="20" fill="#D9D9D9" fill-opacity="0.75"/>
    <rect x="383" y="579" width="238" height="40" rx="20" fill="#D9D9D9" fill-opacity="0.75"/>
    <path d="M528 352.5C528 449.426 449.426 528 352.5 528C255.574 528 177 449.426 177 352.5C177 255.574 255.574 177 352.5 177C449.426 177 528 255.574 528 352.5Z"
          fill="#DBDBDB" stroke="#333333" stroke-width="22"/>
    <path d="M463 342C469.075 342 474 346.925 474 353V353C474 359.075 469.075 364 463 364H394C387.925 364 383 359.075 383 353V353C383 346.925 387.925 342 394 342H463Z"
          fill="#FF3243"/>
    <path d="M316 342C322.075 342 327 346.925 327 353V353C327 359.075 322.075 364 316 364H247C240.925 364 236 359.075 236 353V353C236 346.925 240.925 342 247 342H316Z"
          fill="#4ACD61"/>
    <path d="M293 388C293 394.075 288.075 399 282 399V399C275.925 399 271 394.075 271 388L271 319C271 312.925 275.925 308 282 308V308C288.075 308 293 312.925 293 319L293 388Z"
          fill="#4ACD61"/>
</svg>
